<svg xmlns="http://www.w3.org/2000/svg" viewBox="0 0 42 42" class="Energy_icon__2Oppb"><path d="M31 19.1c-7.5-8.2-6.2-14.6-6.2-14.6a1.1 1.1 0 00-.3-.8.9.9 0 00-.7-.1c-.6.2-12.8 5.3-16 15.8s6.3 18.9 6.7 19.3a.6.6 0 00.9.1.8.8 0 00.3-.9c-2.8-6.5-1-10 .9-13.2 1.1-1.5 2.7-4.1 3.9-5.9V22c-.1 4.1-.1 7.6 2.7 8.5a1.7 1.7 0 002-.3c1.1-.9 1.3-3.3 1.2-5.2 4.4 6.1-.1 12.5-.4 12.8a.8.8 0 00.1 1l.5.2h.4a13.8 13.8 0 007.7-9.3c.6-3.6-.6-7.2-3.7-10.6zm2.2 10.3a11.8 11.8 0 01-4.6 6.8c1.4-3.2 2.6-8.9-2.6-14l-.6-.2h-.3c-.3.1-.4.4-.4.8.3 2.1.4 5.5-.5 6.2s-.2.2-.6 0-1.6-3.5-1.6-7a53.3 53.3 0 00-.2-5.6.6.6 0 00-.6-.6.7.7 0 00-.8.3s-3.4 5.2-5 7.8-3.4 5.9-2.3 10.9c-2.5-3.4-5.7-9.2-3.9-15 2.4-8 10.9-12.8 14-14.3-.1 2.5.7 8 6.7 14.6q4.2 4.7 3.3 9.3z" fill="#4d8384"></path></svg>
