<svg xmlns="http://www.w3.org/2000/svg" viewBox="0 0 42 42"><path d="M27.3 9.2V4.4a.8.8 0 00-.8-.7H15.6a.8.8 0 00-.8.7v4.8a11.4 11.4 0 00-9.3 11.2v2.8a11.4 11.4 0 007.3 10.7c0 .1-.1.1-.1.2v2.8h16.7v-2.8a.3.3 0 00-.1-.2 11.6 11.6 0 007.2-10.7v-2.8a11.5 11.5 0 00-9.2-11.2zm-11-4h9.5V9h-2.4V7a.7.7 0 00-.7-.7h-3.3a.7.7 0 00-.7.7v2h-2.4zM21.9 9h-1.7V7.8h1.7zm-5 1.5h8.2a9.9 9.9 0 019.9 9.9v.2H7v-.2a9.9 9.9 0 019.9-9.9zm11 24.9H14.2v-1.1a12.6 12.6 0 002.7.4h8.2a13.5 13.5 0 002.8-.4zm-2.8-2.2h-8.2a9.9 9.9 0 01-9.9-10v-1.1h28v1.1a9.9 9.9 0 01-9.9 10z" fill="#4d8384"></path></svg>
