<svg xmlns="http://www.w3.org/2000/svg" viewBox="0 0 20 21" tabindex="-1"><path d="M10 1.5c-5 0-9 4-9 9s4 9 9 9 9-4 9-9-4-9-9-9zm.6 13.8c-.2.2-.4.2-.7.2-.3 0-.5-.1-.7-.2-.2-.2-.2-.4-.2-.6 0-.3.1-.5.3-.6.2-.2.4-.2.7-.2.3 0 .5.1.7.3.2.2.3.4.3.6-.2.1-.3.3-.4.5zm1.3-5l-.9.8c-.3.3-.5.8-.5 1.5H9c0-.6.1-1.1.2-1.4.2-.4.5-.7.9-1.2.5-.5.8-.8.9-1 .2-.3.3-.6.3-.9 0-.4-.1-.7-.3-1-.2-.1-.6-.2-1-.2s-.7.1-1 .3c-.2.2-.3.5-.3.9H7c0-.8.3-1.4.8-1.9.6-.5 1.3-.7 2.2-.7.9 0 1.7.2 2.2.7.5.4.8 1.1.8 1.9 0 .7-.4 1.5-1.1 2.2z" fill="#4d8384"></path></svg>
