<svg xmlns="http://www.w3.org/2000/svg" viewBox="0 0 42 42"><g fill="#4d8384"><path d="M21.2 13.9l.5-.2 5.2-4.8a.7.7 0 00.1-1.1.8.8 0 00-1.1 0l-5.2 4.8a.7.7 0 000 1 .5.5 0 00.5.3zM24.6 17.7l-8.3 7.5a.8.8 0 000 1.1c.1.2.3.2.5.2s.4 0 .5-.2l8.3-7.5a.8.8 0 000-1.1.7.7 0 00-1 0zM19.4 18.3l.5-.2 4.1-3.8a.8.8 0 000-1.1.7.7 0 00-1 0L18.9 17a.7.7 0 00-.1 1 .9.9 0 00.6.3zM26.4 16.5c.1.2.3.2.5.2s.4 0 .5-.2l2.6-2.3a.9.9 0 00.1-1.1.8.8 0 00-1.1 0l-2.6 2.3a.8.8 0 000 1.1zM21 28.2l-1.5 1.4a.8.8 0 00-.1 1l.6.3.5-.2 1.5-1.4a.7.7 0 10-1-1.1zM26.5 23.4a.5.5 0 00.5.3l.5-.2 3.3-3a.8.8 0 000-1.1.7.7 0 00-1 0l-3.3 3a.7.7 0 000 1z"></path><path d="M35.6 8.1c-3.2-3.9-7.1-5.7-9.1-4.2h-.2L4.1 24.5c-.2.1-.2.3-.2.5-.9 2 .2 5.5 2.9 8.8s5.3 4.8 7.4 4.8a2.4 2.4 0 001.7-.6.2.2 0 00.2-.2h.2l21.8-20h.1c1.5-2 .5-5.9-2.6-9.7zm-3.9-1.7l-3.2 2.9a.9.9 0 00-.1 1.1.7.7 0 00.6.2h.5l3.4-3.1 1.6 1.7 1.3 1.8-8.1 7.5a.7.7 0 000 1 .5.5 0 00.5.3l.5-.2 7.8-7.2c1 2.1 1.2 3.8.5 4.4h-.1l-20 18.3a10.1 10.1 0 00-1-3.3l3.6-3.2a.9.9 0 00.1-1.1.8.8 0 00-1.1 0l-3.3 3a17.7 17.7 0 00-1.6-2.2 20.9 20.9 0 00-2.5-2.6l6.4-6a.7.7 0 000-1 .8.8 0 00-1-.1l-6.7 6.2a8.5 8.5 0 00-2.6-1.2L27.3 5.2h.2c.7-.7 2.4-.2 4.2 1.2zM8 32.9c-2.7-3.3-3.6-6.8-2.5-7.6a1.1 1.1 0 01.8-.3c1.4 0 4 1.5 6.2 4.2S16 36 15 36.9s-4.3-.7-7-4z"></path><path d="M7.8 27.4a.8.8 0 00-.1 1.5c.1 0 2.5.3 4 4.1a.8.8 0 00.7.5c.1 0 .2 0 .2-.1a.8.8 0 00.5-1c-1.9-4.7-5.2-5-5.3-5z"></path></g></svg>
